<svg xmlns="http://www.w3.org/2000/svg" viewBox="0 0 1000 1000" width="1000" height="1000">
  <defs>
    <linearGradient id="sun" x1="0" y1="0" x2="1" y2="1">
      <stop offset="0" stop-color="#FB8B3C"/>
      <stop offset="1" stop-color="#B8390B"/>
    </linearGradient>
  </defs>
  <rect x="0" y="0" width="1000" height="1000" rx="228" fill="url(#sun)"/>
  
  <g fill="#fff">
    <rect x="458" y="150" width="84" height="178" rx="42" transform="rotate(0 500 500)"/><rect x="458" y="150" width="84" height="178" rx="42" transform="rotate(30 500 500)"/><rect x="458" y="150" width="84" height="178" rx="42" transform="rotate(60 500 500)"/><rect x="458" y="150" width="84" height="178" rx="42" transform="rotate(90 500 500)"/><rect x="458" y="150" width="84" height="178" rx="42" transform="rotate(120 500 500)"/><rect x="458" y="150" width="84" height="178" rx="42" transform="rotate(150 500 500)"/><rect x="458" y="150" width="84" height="178" rx="42" transform="rotate(180 500 500)"/><rect x="458" y="150" width="84" height="178" rx="42" transform="rotate(210 500 500)"/><rect x="458" y="150" width="84" height="178" rx="42" transform="rotate(240 500 500)"/><rect x="458" y="150" width="84" height="178" rx="42" transform="rotate(270 500 500)"/><rect x="458" y="150" width="84" height="178" rx="42" transform="rotate(300 500 500)"/><rect x="458" y="150" width="84" height="178" rx="42" transform="rotate(330 500 500)"/>
    <circle cx="500" cy="500" r="138"/>
  </g>
  <g fill="#B8390B">
    <circle cx="453" cy="476" r="17"/>
    <circle cx="547" cy="476" r="17"/>
  </g>
  <path d="M440 530 Q500 582 560 530" fill="none" stroke="#B8390B" stroke-width="22" stroke-linecap="round"/>
</svg>